<svg id="eefcNgEwAku1" xmlns="http://www.w3.org/2000/svg" xmlns:xlink="http://www.w3.org/1999/xlink" viewBox="0 0 24 24" shape-rendering="geometricPrecision" text-rendering="geometricPrecision" width="17.5" height="17.5" style="background-color:var(--themeBG)">
<style><![CDATA[
#eefcNgEwAku10_ts {animation: eefcNgEwAku10_ts__ts 500ms linear 1 reverse backwards}@keyframes eefcNgEwAku10_ts__ts { 0% {transform: translate(12px,12px) scale(0.71977,0.709756);animation-timing-function: cubic-bezier(0.77,0,0.175,1)} 100% {transform: translate(12px,12px) scale(1,1)}} #eefcNgEwAku11_ts {animation: eefcNgEwAku11_ts__ts 500ms linear 1 reverse backwards}@keyframes eefcNgEwAku11_ts__ts { 0% {transform: translate(11.999993px,12px) scale(1,1);animation-timing-function: cubic-bezier(0.77,0,0.175,1)} 100% {transform: translate(11.999993px,12px) scale(1.739135,1.739135)}} #eefcNgEwAku12_to {animation: eefcNgEwAku12_to__to 500ms linear 1 reverse backwards}@keyframes eefcNgEwAku12_to__to { 0% {transform: translate(13.352895px,13.219297px);animation-timing-function: cubic-bezier(0.77,0,0.175,1)} 100% {transform: translate(21.372175px,9.370769px)}} #eefcNgEwAku12_ts {animation: eefcNgEwAku12_ts__ts 500ms linear 1 reverse backwards}@keyframes eefcNgEwAku12_ts__ts { 0% {transform: scale(1.740114,1.760093);animation-timing-function: cubic-bezier(0.77,0,0.175,1)} 100% {transform: scale(3.051128,3.061484)}} #eefcNgEwAku13_ts {animation: eefcNgEwAku13_ts__ts 500ms linear 1 reverse backwards}@keyframes eefcNgEwAku13_ts__ts { 0% {transform: translate(12.555488px,12.960956px) scale(1.046291,1.08008);animation-timing-function: cubic-bezier(0.77,0,0.175,1)}  100% {transform: translate(12.555488px,12.960956px) scale(0.879624,0.913413)}} #eefcNgEwAku15_to {animation: eefcNgEwAku15_to__to 500ms linear 1 reverse backwards}@keyframes eefcNgEwAku15_to__to { 0% {transform: translate(24.727609px,-0.329957px)} 8.333333% {transform: translate(24.727609px,-0.329957px)} 100% {transform: translate(24px,0.047648px)}} path{fill: var(--themeFG)} path#shapeblock{fill: none; stroke: var(--themeBG)}
]]></style>
<path d="M12,5c-.1981-.00259-.3874-.08244-.5275-.22253s-.2199-.32936-.2225-.52747v-1.5c0-.19891.079-.38968.2197-.53033s.3314-.21967.5303-.21967.3897.07902.5303.21967.2197.33142.2197.53033v1.5c-.0026.19811-.0824.38737-.2225.52747s-.3294.21994-.5275.22253Z"/><path d="M12,22c-.1981-.0026-.3874-.0824-.5275-.2225s-.2199-.3294-.2225-.5275v-1.5c0-.1989.079-.3897.2197-.5303s.3314-.2197.5303-.2197.3897.079.5303.2197.2197.3314.2197.5303v1.5c-.0026.1981-.0824.3874-.2225.5275s-.3294.2199-.5275.2225Z"/><path d="M21.25,12.75h-1.5c-.1989,0-.3897-.079-.5303-.2197s-.2197-.3314-.2197-.5303.079-.3897.2197-.5303.3314-.2197.5303-.2197h1.5c.1989,0,.3897.079.5303.2197s.2197.3314.2197.5303-.079.3897-.2197.5303-.3314.2197-.5303.2197Z"/><path d="M4.25,12.75h-1.5c-.19891,0-.38968-.079-.53033-.2197s-.21967-.3314-.21967-.5303.07902-.3897.21967-.5303.33142-.2197.53033-.2197h1.5c.19891,0,.38968.079.53033.2197s.21967.3314.21967.5303-.07902.3897-.21967.5303-.33142.2197-.53033.2197Z"/><path d="M6.50001,7.24995c-.19294-.01475-.37243-.1045-.5-.25l-1.09-1c-.07157-.07157-.12834-.15654-.16708-.25005s-.05866-.19373-.05866-.29495.01993-.20144.05866-.29495.09551-.17848.16708-.25005.15654-.12834.25005-.16708.19374-.05867.29495-.05867.20144.01994.29495.05867.17848.09551.25005.16708l1,1.09c.12299.13751.19098.31552.19098.5s-.06799.36249-.19098.5c-.12757.1455-.30706.23525-.5.25Z"/><path d="M18.56,19.31c-.0985.0004-.1962-.0188-.2872-.0566s-.1735-.0933-.2428-.1634L17,18c-.0668-.14-.0886-.2972-.0624-.4501s.0992-.2938.2089-.4035.2506-.1826.4035-.2088c.1528-.0263.3101-.0045.45.0624l1.09,1c.1405.1406.2194.3312.2194.53c0,.1987-.0789.3894-.2194.53-.0667.0755-.1481.1367-.2392.1797s-.1901.0669-.2908.0703Z"/><path d="M17.5,7.24995c-.1929-.01475-.3724-.1045-.5-.25-.123-.13751-.191-.31552-.191-.5s.068-.36249.191-.5l1-1.09c.1445-.14454.3406-.22575.545-.22575s.4005.08121.545.22575.2258.34059.2258.545-.0813.40046-.2258.545l-1.09,1c-.1276.1455-.3071.23525-.5.25Z"/><path d="M5.44001,19.31c-.09854.0004-.19618-.0188-.28719-.0566s-.17356-.0933-.24281-.1634c-.14045-.1406-.21934-.3313-.21934-.53s.07889-.3894.21934-.53l1.09-1.03c.13996-.0669.29719-.0887.45005-.0624s.29384.0992.40351.2088.18264.2507.20887.4035.00441.3101-.06243.4501l-1,1.09c-.07273.0738-.16016.1316-.25663.1695s-.19982.0551-.30337.0505Z"/><g id="eefcNgEwAku10_ts" transform="translate(12,12) scale(0.71977,0.709756)"><ellipse rx="8.5" ry="8.5" transform="translate(0,0)" fill="var(--themeBG)" stroke-width="0"/></g><g id="eefcNgEwAku11_ts" transform="translate(11.999993,12) scale(1,1)"><path d="M12,17.75c-1.1372,0-2.24894-.3372-3.19453-.969s-1.68257-1.5299-2.11777-2.5806-.54908-2.2068-.32721-3.3222.7695-2.13991,1.57365-2.94406s1.8287-1.35179,2.94406-1.57365s2.2716-.108,3.3222.32721s1.9487,1.17219,2.5806,2.11777.969,2.05733.969,3.19453c-.0026,1.5242-.6093,2.9852-1.6871,4.0629C14.9852,17.1407,13.5242,17.7474,12,17.75Zm0-10c-.8406,0-1.6623.24926-2.36117.71626s-1.24364,1.13075-1.56532,1.90734-.40583,1.6311-.24184,2.4555.56876,1.5817,1.16313,2.1761s1.3516.9992,2.1761,1.1631c.8244.164,1.6789.0799,2.4555-.2418s1.4404-.8664,1.9073-1.5653.7163-1.5206.7163-2.3612c-.0026-1.1264-.4513-2.20583-1.2477-3.00228s-1.8759-1.24508-3.0023-1.24772Z" transform="translate(-12,-12)"/></g><g id="eefcNgEwAku12_to" transform="translate(13.352895,13.219297)"><g id="eefcNgEwAku12_ts" transform="scale(1.740114,1.760093)"><ellipse rx="2.729706" ry="2.698721" transform="translate(-0.777475,-0.692742)" fill="var(--themeBG)" stroke="var(--themeFG)" stroke-width="0.75" stroke-linejoin="round"/></g></g><g id="eefcNgEwAku13_ts" transform="translate(12.555488,12.960956) scale(1.046291,1.08008)"><ellipse rx="11.368494" ry="10.94795" transform="translate(-0.631506,-1.05205)" fill="none" stroke="var(--themeBG)"/></g><path id="shapeblock" d="M10.04903,0.718733c20.640282,1.500936,12.912269-3.131037,12.98327.78717.07156,3.949046,0,4.700979,0,7.871707c0,2.622401.967699,7.145713-2.532301,9.933115" transform="translate(.000001 0.000001)" fill="none" stroke="var(--themeBG)" stroke-width="2.13"/><g id="eefcNgEwAku15_to" transform="translate(24.727609,-0.329957)"><rect width="12.304688" height="11.431406" rx="0" ry="0" transform="rotate(48.228552) scale(1.569653,1.300657) translate(-6.152344,-5.715703)" fill="var(--themeBG)" stroke-width="0"/></g></svg>
